<svg xmlns="http://www.w3.org/2000/svg" width="32" height="32" fill="none"><use href="#O" fill="#ff8c4c"/><use href="#O" fill="url(#I)"/><use href="#O" fill="url(#J)"/><use href="#O" fill="url(#A)"/><use href="#O" fill="url(#B)"/><path fill="url(#K)" d="M13.006 19.082a1.31 1.31 0 0 0 .047-1.85L7.6 11.496l-.975 2.763 4.53 4.766a1.303 1.303 0 0 0 1.85.057" opacity=".5"/><path fill="url(#L)" d="M8.955 23.713a1.31 1.31 0 0 0-.047 1.851l2.199 2.314 2.81-.834-3.121-3.284a1.3 1.3 0 0 0-1.84-.047" opacity=".5"/><path fill="url(#M)" d="M17.098 16.887a1.31 1.31 0 0 0-.047 1.851l5.38 5.662a6.45 6.45 0 0 0 2.02-1.666l-5.502-5.79a1.303 1.303 0 0 0-1.85-.057" opacity=".5"/><use href="#P" fill="#aad248"/><use href="#P" fill="url(#C)"/><use href="#P" fill="url(#D)"/><use href="#Q" fill="#aad248"/><use href="#Q" fill="url(#E)"/><use href="#Q" fill="url(#F)"/><use href="#Q" fill="url(#N)"/><use href="#R" fill="#aad248"/><use href="#R" fill="url(#G)"/><use href="#R" fill="url(#H)"/><defs><radialGradient id="A" cx="0" cy="0" r="1" gradientTransform="matrix(-5,5.75001,-11.56102,-10.05303,21.625,14.875)" href="#S"><stop stop-color="#ffd769"/><stop offset=".53" stop-color="#ffa427"/><stop offset="1" stop-color="#fca328" stop-opacity="0"/></radialGradient><radialGradient id="B" cx="0" cy="0" r="1" gradientTransform="matrix(-17.31246220224117,14.624986204983946,-14.58458889940075,-17.264641519460415,8.562204362916116,23.999525381985926)" href="#S"><stop offset=".053" stop-color="#ff9243" stop-opacity="0"/><stop offset=".773" stop-color="#f28b3a" stop-opacity="0"/><stop offset=".849" stop-color="#cb751f"/></radialGradient><radialGradient id="C" cx="0" cy="0" r="1" gradientTransform="matrix(-2.125,1.12499,-1.05603,-1.99475,21.313,4.625)" href="#S"><stop stop-color="#c1f26b"/><stop offset="1" stop-color="#bcef62" stop-opacity="0"/></radialGradient><radialGradient id="D" cx="0" cy="0" r="1" gradientTransform="matrix(-4.91602,0.81252,-1.14761,-6.94343,21.688,6.25)" href="#S"><stop stop-color="#afdc52" stop-opacity="0"/><stop offset=".713" stop-color="#8bc028"/><stop offset="1" stop-color="#81aa56"/></radialGradient><radialGradient id="E" cx="0" cy="0" r="1" gradientTransform="matrix(-2.250001046822964,1.9374936043495903,-1.8187346505460495,-2.112086903634209,28.437610260863327,11.749352489544851)" href="#S"><stop stop-color="#c1f26b"/><stop offset="1" stop-color="#bcef62" stop-opacity="0"/></radialGradient><radialGradient id="F" cx="0" cy="0" r="1" gradientTransform="matrix(1.03086,4.5,-11.77996,2.69856,25.782,11.563)" href="#S"><stop stop-color="#a7d029" stop-opacity="0"/><stop offset="1" stop-color="#b3ba74"/></radialGradient><radialGradient id="G" cx="0" cy="0" r="1" gradientTransform="matrix(-1.0336,2.55837,-1.9571,-0.79068,27.545,4.857)" href="#S"><stop stop-color="#c1f26b"/><stop offset="1" stop-color="#bcef62" stop-opacity="0"/></radialGradient><radialGradient id="H" cx="0" cy="0" r="1" gradientTransform="matrix(-7.87498,7.87498,-3.78308,-3.78308,27.125,5.938)" href="#S"><stop stop-color="#afdc52" stop-opacity="0"/><stop offset=".847" stop-color="#6fb909"/></radialGradient><linearGradient id="I" x1="-2.5" x2="11.563" y1="12.5" y2="20.313" href="#S"><stop offset=".541" stop-color="#b3734c"/><stop offset=".769" stop-color="#ea842a"/><stop offset="1" stop-color="#fd9434"/></linearGradient><linearGradient id="J" x1="20.5" x2="15.063" y1="32.375" y2="18.563" href="#S"><stop offset=".404" stop-color="#ff7cb4"/><stop offset="1" stop-color="#ff717b" stop-opacity="0"/></linearGradient><linearGradient id="K" x1="7.188" x2="12.938" y1="13.688" y2="19.125" href="#S"><stop offset=".1" stop-color="#6e482a"/><stop offset="1" stop-color="#ac5e3b"/></linearGradient><linearGradient id="L" x1="8.947" x2="11.585" y1="24.012" y2="28.797" href="#S"><stop offset=".1" stop-color="#9e5044"/><stop offset="1" stop-color="#c95d82"/></linearGradient><linearGradient id="M" x1="17.25" x2="22.278" y1="17.688" y2="24.414" href="#S"><stop offset=".1" stop-color="#aa6147"/><stop offset="1" stop-color="#cb747c"/></linearGradient><linearGradient id="N" x1="27.719" x2="27.625" y1="9.125" y2="10.688" href="#S"><stop offset=".276" stop-color="#8ace17"/><stop offset="1" stop-color="#91d212" stop-opacity="0"/></linearGradient><path id="O" d="m4.691 29.774 16.51-4.886c4.729-1.398 6.318-7.41 2.924-10.982l-5.269-5.544c-3.394-3.572-9.382-2.177-11.02 2.463L2.119 27.066c-.572 1.619.927 3.197 2.573 2.708"/><path id="P" d="M18.132 3.02c-1.792 1.468-1.301 3.516-.616 4.283a518 518 0 0 0 3.75 3.744c.381.26.655.208.887.161.172-.035.327-.168.454-.38.106-.177.006-3.01.24-5.589.175-1.923-2.675-3.891-4.715-2.22"/><path id="Q" d="M29.312 14.437c-1.51 1.757-3.546 1.22-4.296.516a1113 1113 0 0 0-3.328-3.422 1.01 1.01 0 0 1-.141-.89c.039-.172.175-.324.39-.446.18-.101 2.683-.35 5.266-.523 1.927-.13 3.828 2.765 2.11 4.765"/><path id="R" d="M28.094 3.766c2.533 1.856 1.218 5.5-.891 5.906-1.505.29-5.07.437-5.07.437s.288-3.583.695-4.797c.984-2.937 3.688-2.703 5.266-1.546"/><linearGradient id="S" gradientUnits="userSpaceOnUse"/></defs></svg>
